<svg xmlns="http://www.w3.org/2000/svg" xmlns:xlink="http://www.w3.org/1999/xlink" preserveAspectRatio="xMidYMid" width="79" height="91" viewBox="0 0 79 91">
  <defs>
    <style>

      .cls-2 {
        fill: #3c3c3c;
      }
    </style>
  </defs>
  <path d="M76.888,91.000 C76.888,91.000 2.081,91.000 2.081,91.000 C0.920,91.000 -0.011,90.075 -0.011,88.921 C-0.011,88.921 -0.011,13.483 -0.011,13.483 C-0.011,12.340 0.920,11.405 2.081,11.405 C2.081,11.405 22.548,11.405 22.548,11.405 C22.767,8.224 25.435,5.719 28.679,5.719 C28.679,5.719 34.673,5.719 34.673,5.719 C34.705,2.570 37.300,0.013 40.480,0.013 C43.670,0.013 46.254,2.570 46.296,5.719 C46.296,5.719 52.281,5.719 52.281,5.719 C55.534,5.719 58.202,8.224 58.422,11.405 C58.422,11.405 76.888,11.405 76.888,11.405 C78.049,11.405 78.981,12.340 78.981,13.483 C78.981,13.483 78.981,88.921 78.981,88.921 C78.981,90.075 78.049,91.000 76.888,91.000 ZM54.259,11.842 C54.259,10.761 53.381,9.877 52.282,9.877 C52.282,9.877 45.743,9.877 45.743,9.877 C43.745,9.877 42.113,8.257 42.113,6.271 C42.113,6.271 42.113,5.793 42.113,5.793 C42.113,4.899 41.380,4.171 40.481,4.171 C39.591,4.171 38.859,4.899 38.859,5.793 C38.859,5.793 38.859,6.271 38.859,6.271 C38.859,8.255 37.226,9.877 35.218,9.877 C35.218,9.877 28.679,9.877 28.679,9.877 C27.591,9.877 26.711,10.761 26.711,11.842 C26.711,11.842 26.713,11.842 26.713,11.842 C26.713,11.842 26.713,16.103 26.713,16.103 C26.713,16.103 54.259,16.103 54.259,16.103 C54.259,16.103 54.259,11.842 54.259,11.842 ZM74.794,15.562 C74.794,15.562 58.441,15.562 58.441,15.562 C58.441,15.562 58.441,18.181 58.441,18.181 C58.441,19.335 57.510,20.260 56.349,20.260 C56.349,20.260 24.618,20.260 24.618,20.260 C23.457,20.260 22.526,19.335 22.526,18.181 C22.526,18.181 22.526,15.562 22.526,15.562 C22.526,15.562 4.173,15.562 4.173,15.562 C4.173,15.562 4.173,86.843 4.173,86.843 C4.173,86.843 74.794,86.843 74.794,86.843 C74.794,86.843 74.794,15.562 74.794,15.562 ZM19.768,32.375 C19.768,32.375 21.757,34.350 21.757,34.350 C21.757,34.350 26.843,29.298 26.843,29.298 C27.455,28.689 28.449,28.689 29.062,29.298 C29.675,29.906 29.675,30.894 29.062,31.503 C29.062,31.503 22.867,37.657 22.867,37.657 C22.559,37.962 22.157,38.114 21.756,38.114 C21.354,38.114 20.953,37.962 20.647,37.657 C20.647,37.657 17.549,34.580 17.549,34.580 C16.937,33.971 16.937,32.984 17.549,32.375 C18.162,31.766 19.155,31.766 19.768,32.375 ZM19.768,45.715 C19.768,45.715 21.757,47.689 21.757,47.689 C21.757,47.689 26.843,42.638 26.843,42.638 C27.455,42.029 28.449,42.029 29.062,42.638 C29.676,43.246 29.675,44.234 29.062,44.843 C29.062,44.843 22.867,50.997 22.867,50.997 C22.559,51.302 22.157,51.454 21.756,51.454 C21.354,51.454 20.953,51.301 20.647,50.997 C20.647,50.997 17.549,47.920 17.549,47.920 C16.937,47.311 16.937,46.324 17.549,45.715 C18.162,45.106 19.155,45.106 19.768,45.715 ZM19.768,59.055 C19.768,59.055 21.757,61.031 21.757,61.031 C21.757,61.031 26.843,55.979 26.843,55.979 C27.455,55.370 28.449,55.370 29.062,55.979 C29.675,56.588 29.675,57.575 29.062,58.184 C29.062,58.184 22.867,64.339 22.867,64.339 C22.559,64.643 22.157,64.794 21.756,64.794 C21.354,64.794 20.953,64.642 20.647,64.338 C20.647,64.338 17.549,61.261 17.549,61.261 C16.937,60.652 16.937,59.664 17.549,59.055 C18.162,58.447 19.155,58.447 19.768,59.055 ZM19.768,72.397 C19.768,72.397 21.757,74.373 21.757,74.373 C21.757,74.373 26.843,69.321 26.843,69.321 C27.455,68.712 28.449,68.712 29.062,69.321 C29.676,69.930 29.675,70.917 29.062,71.526 C29.062,71.526 22.867,77.680 22.867,77.680 C22.559,77.984 22.157,78.137 21.756,78.137 C21.354,78.137 20.953,77.984 20.647,77.680 C20.647,77.680 17.549,74.602 17.549,74.602 C16.937,73.993 16.937,73.006 17.549,72.397 C18.162,71.789 19.155,71.789 19.768,72.397 ZM35.637,31.919 C35.637,31.919 54.311,31.919 54.311,31.919 C55.177,31.919 55.880,32.617 55.880,33.478 C55.880,34.339 55.178,35.037 54.311,35.037 C54.311,35.037 35.637,35.037 35.637,35.037 C34.771,35.037 34.068,34.339 34.068,33.478 C34.068,32.617 34.771,31.919 35.637,31.919 ZM35.637,45.260 C35.637,45.260 54.311,45.260 54.311,45.260 C55.177,45.260 55.880,45.958 55.880,46.819 C55.880,47.680 55.178,48.378 54.311,48.378 C54.311,48.378 35.637,48.378 35.637,48.378 C34.771,48.378 34.068,47.680 34.068,46.819 C34.068,45.958 34.771,45.260 35.637,45.260 ZM35.637,58.600 C35.637,58.600 54.311,58.600 54.311,58.600 C55.177,58.600 55.880,59.297 55.880,60.159 C55.880,61.020 55.178,61.717 54.311,61.717 C54.311,61.717 35.637,61.717 35.637,61.717 C34.771,61.717 34.068,61.020 34.068,60.159 C34.068,59.297 34.771,58.600 35.637,58.600 ZM35.637,71.940 C35.637,71.940 54.311,71.940 54.311,71.940 C55.177,71.940 55.880,72.638 55.880,73.499 C55.880,74.360 55.178,75.058 54.311,75.058 C54.311,75.058 35.637,75.058 35.637,75.058 C34.771,75.058 34.068,74.360 34.068,73.499 C34.068,72.638 34.771,71.940 35.637,71.940 ZM40.485,10.140 C41.595,10.140 42.494,11.034 42.494,12.137 C42.494,13.239 41.595,14.133 40.485,14.133 C39.375,14.133 38.475,13.239 38.475,12.137 C38.475,11.034 39.375,10.140 40.485,10.140 Z" id="path-1" class="cls-2" fill-rule="evenodd"/>
</svg>
