<svg xmlns="http://www.w3.org/2000/svg" xmlns:xlink="http://www.w3.org/1999/xlink" preserveAspectRatio="xMidYMid" width="80" height="84" viewBox="0 0 80 84">
  <defs>
    <style>

      .cls-2 {
        fill: #3c3c3c;
      }
    </style>
  </defs>
  <path d="M77.956,-0.011 C77.956,-0.011 66.032,-0.011 66.032,-0.011 C64.907,-0.011 64.007,0.889 64.007,2.014 C64.007,2.014 64.007,6.177 64.007,6.177 C64.007,6.177 15.860,6.177 15.860,6.177 C15.860,6.177 15.860,2.014 15.860,2.014 C15.860,0.889 14.961,-0.011 13.836,-0.011 C13.836,-0.011 2.024,-0.011 2.024,-0.011 C0.899,-0.011 -0.001,0.889 -0.001,2.014 C-0.001,2.014 -0.001,14.277 -0.001,14.277 C-0.001,15.402 0.899,16.302 2.024,16.302 C2.024,16.302 13.948,16.302 13.948,16.302 C15.073,16.302 15.973,15.402 15.973,14.277 C15.973,14.277 15.973,10.114 15.973,10.114 C15.973,10.114 38.134,10.114 38.134,10.114 C37.909,15.065 25.872,38.354 18.223,52.079 C17.773,52.867 17.998,53.879 18.673,54.554 C25.535,60.404 27.222,66.143 27.672,69.067 C27.672,69.067 25.085,69.067 25.085,69.067 C23.960,69.067 23.060,69.967 23.060,71.093 C23.060,71.093 23.060,80.993 23.060,80.993 C23.060,82.118 23.960,83.018 25.085,83.018 C25.085,83.018 55.008,83.018 55.008,83.018 C56.133,83.018 57.033,82.118 57.033,80.993 C57.033,80.993 57.033,71.093 57.033,71.093 C57.033,69.967 56.133,69.067 55.008,69.067 C55.008,69.067 52.420,69.067 52.420,69.067 C52.870,66.143 54.558,60.404 61.420,54.554 C62.095,53.992 62.320,52.867 61.870,52.079 C54.220,38.354 42.184,14.952 41.959,10.114 C41.959,10.114 64.007,10.114 64.007,10.114 C64.007,10.114 64.007,14.277 64.007,14.277 C64.007,15.402 64.907,16.302 66.032,16.302 C66.032,16.302 77.956,16.302 77.956,16.302 C79.081,16.302 79.981,15.402 79.981,14.277 C79.981,14.277 79.981,2.014 79.981,2.014 C79.981,0.889 79.081,-0.011 77.956,-0.011 ZM11.923,12.252 C11.923,12.252 3.936,12.252 3.936,12.252 C3.936,12.252 3.936,3.926 3.936,3.926 C3.936,3.926 11.923,3.926 11.923,3.926 C11.923,3.926 11.923,12.252 11.923,12.252 ZM40.046,45.216 C41.509,45.216 42.634,46.341 42.634,47.804 C42.634,49.267 41.509,50.392 40.046,50.392 C38.584,50.392 37.459,49.267 37.459,47.804 C37.459,46.454 38.696,45.216 40.046,45.216 ZM53.095,78.855 C53.095,78.855 27.110,78.855 27.110,78.855 C27.110,78.855 27.110,72.893 27.110,72.893 C27.110,72.893 29.810,72.893 29.810,72.893 C29.810,72.893 50.396,72.893 50.396,72.893 C50.396,72.893 53.095,72.893 53.095,72.893 C53.095,72.893 53.095,78.855 53.095,78.855 ZM48.483,68.955 C48.483,68.955 31.609,68.955 31.609,68.955 C31.159,65.692 29.472,59.167 22.385,52.529 C25.085,47.579 33.184,32.728 38.021,21.702 C38.021,21.702 38.021,41.616 38.021,41.616 C35.434,42.404 33.522,44.878 33.522,47.804 C33.522,51.404 36.447,54.329 40.046,54.329 C43.646,54.329 46.571,51.404 46.571,47.804 C46.571,44.878 44.658,42.516 42.071,41.616 C42.071,41.616 42.071,21.590 42.071,21.590 C47.021,32.616 55.008,47.466 57.707,52.529 C50.621,59.167 48.933,65.692 48.483,68.955 ZM76.044,12.252 C76.044,12.252 68.057,12.252 68.057,12.252 C68.057,12.252 68.057,8.539 68.057,8.539 C68.057,8.427 68.057,8.314 68.057,8.202 C68.057,8.089 68.057,7.977 68.057,7.864 C68.057,7.864 68.057,4.039 68.057,4.039 C68.057,4.039 76.044,4.039 76.044,4.039 C76.044,4.039 76.044,12.252 76.044,12.252 Z" id="path-1" class="cls-2" fill-rule="evenodd"/>
</svg>
